<svg width="42" height="41" viewBox="0 0 42 41" fill="none" xmlns="http://www.w3.org/2000/svg">
<g clip-path="url(#clip0_234_89)">
<path d="M8.88546 23.0347C8.50702 23.0347 8.18142 22.9108 7.90865 22.6631C7.63622 22.4157 7.5 22.1147 7.5 21.7604V5.12053C7.5 4.2603 7.83055 3.52515 8.49166 2.91509C9.1531 2.30503 9.94977 2 10.8817 2H26.4982L36.5 11.2295V32.8795C36.5 33.7397 36.1694 34.4749 35.5083 35.0849C34.8469 35.695 34.0502 36 33.1183 36H23.5717C23.1877 36 22.8614 35.874 22.5929 35.622C22.3248 35.3703 22.1907 35.0698 22.1907 34.7206C22.1907 34.3714 22.3248 34.0711 22.5929 33.8197C22.8614 33.568 23.1877 33.4421 23.5717 33.4421H33.1183C33.2963 33.4421 33.4424 33.3894 33.5567 33.284C33.671 33.1786 33.7281 33.0437 33.7281 32.8795V12.5267H26.7795C26.3112 12.5267 25.913 12.3753 25.5848 12.0724C25.2562 11.7692 25.0919 11.4015 25.0919 10.9694V4.55786H10.8817C10.7037 4.55786 10.5575 4.61058 10.4433 4.71601C10.329 4.82145 10.2719 4.95629 10.2719 5.12053V21.7604C10.2719 22.1147 10.1354 22.4157 9.86226 22.6631C9.5895 22.9108 9.2639 23.0347 8.88546 23.0347Z" fill="#2169F6"/>
<path d="M5.59817 37.0803C4.37467 37.0803 3.33592 36.6357 2.48192 35.7465C1.62809 34.8571 1.20117 33.7751 1.20117 32.5007C1.20117 31.2263 1.62809 30.1443 2.48192 29.2546C3.33592 28.3648 4.37467 27.9199 5.59817 27.9199H8.58967C8.78034 27.9199 8.94417 27.9913 9.08117 28.134C9.21817 28.2769 9.28667 28.4476 9.28667 28.6462C9.28667 28.8483 9.21817 29.0207 9.08117 29.1634C8.94417 29.3059 8.78034 29.3772 8.58967 29.3772H5.59717C4.76834 29.3772 4.06167 29.6816 3.47717 30.2905C2.8925 30.8995 2.60017 31.6361 2.60017 32.5001C2.60017 33.3642 2.8925 34.1007 3.47717 34.7098C4.06167 35.3186 4.76834 35.623 5.59717 35.623H8.58967C8.78034 35.623 8.94417 35.6945 9.08117 35.8374C9.21817 35.9801 9.28667 36.1508 9.28667 36.3496C9.28667 36.5517 9.21817 36.724 9.08117 36.8665C8.94417 37.0091 8.78034 37.0803 8.58967 37.0803H5.59817ZM7.53192 33.2184C7.33792 33.2184 7.17242 33.1469 7.03542 33.004C6.89842 32.8613 6.82992 32.6889 6.82992 32.4868C6.82992 32.2881 6.89842 32.1174 7.03542 31.9749C7.17242 31.8323 7.33792 31.7611 7.53192 31.7611H13.4712C13.662 31.7611 13.8259 31.8324 13.9629 31.9751C14.0999 32.118 14.1684 32.2888 14.1684 32.4874C14.1684 32.6895 14.0999 32.8618 13.9629 33.0043C13.8259 33.147 13.662 33.2184 13.4712 33.2184H7.53192ZM12.4137 37.0803C12.2197 37.0803 12.0542 37.009 11.9172 36.8663C11.7802 36.7234 11.7117 36.5509 11.7117 36.3488C11.7117 36.1502 11.7802 35.9796 11.9172 35.8368C12.0542 35.6943 12.2197 35.623 12.4137 35.623H15.4012C16.23 35.623 16.9367 35.3186 17.5212 34.7098C18.1058 34.1007 18.3982 33.3642 18.3982 32.5001C18.3982 31.6361 18.1058 30.8995 17.5212 30.2905C16.9367 29.6816 16.23 29.3772 15.4012 29.3772H12.4137C12.2197 29.3772 12.0542 29.3058 11.9172 29.1629C11.7802 29.0202 11.7117 28.8478 11.7117 28.6457C11.7117 28.4469 11.7802 28.2763 11.9172 28.1337C12.0542 27.9912 12.2197 27.9199 12.4137 27.9199H15.4002C16.6237 27.9199 17.6624 28.3645 18.5164 29.2538C19.3703 30.1432 19.7972 31.2251 19.7972 32.4996C19.7972 33.7739 19.3703 34.8559 18.5164 35.7457C17.6624 36.6355 16.6237 37.0803 15.4002 37.0803H12.4137Z" fill="#2169F6"/>
</g>
<defs>
<clipPath id="clip0_234_89">
<rect width="41" height="41" fill="white" transform="translate(0.5)"/>
</clipPath>
</defs>
</svg>
